<?xml version="1.0" encoding="UTF-8" standalone="no"?>
<!-- Created with Inkscape (http://www.inkscape.org/) -->

<svg
   xmlns:dc="http://purl.org/dc/elements/1.1/"
   xmlns:cc="http://creativecommons.org/ns#"
   xmlns:rdf="http://www.w3.org/1999/02/22-rdf-syntax-ns#"
   xmlns:svg="http://www.w3.org/2000/svg"
   xmlns="http://www.w3.org/2000/svg"
   xmlns:sodipodi="http://sodipodi.sourceforge.net/DTD/sodipodi-0.dtd"
   xmlns:inkscape="http://www.inkscape.org/namespaces/inkscape"
   width="32"
   height="32"
   viewBox="0 0 31.999998 31.999999"
   id="svg4385"
   version="1.1"
   inkscape:version="0.91 r"
   sodipodi:docname="mischwald.svg">
  <defs
     id="defs4387" />
  <sodipodi:namedview
     id="base"
     pagecolor="#ffffff"
     bordercolor="#666666"
     borderopacity="1.0"
     inkscape:pageopacity="0.0"
     inkscape:pageshadow="2"
     inkscape:zoom="5.2742677"
     inkscape:cx="7.3888137"
     inkscape:cy="-7.8342441"
     inkscape:document-units="px"
     inkscape:current-layer="layer1"
     showgrid="false"
     units="px"
     inkscape:window-width="1366"
     inkscape:window-height="716"
     inkscape:window-x="0"
     inkscape:window-y="0"
     inkscape:window-maximized="1" />
  <metadata
     id="metadata4390">
    <rdf:RDF>
      <cc:Work
         rdf:about="">
        <dc:format>image/svg+xml</dc:format>
        <dc:type
           rdf:resource="http://purl.org/dc/dcmitype/StillImage" />
        <dc:title />
      </cc:Work>
    </rdf:RDF>
  </metadata>
  <g
     inkscape:label="Ebene 1"
     inkscape:groupmode="layer"
     id="layer1"
     transform="translate(0,-1020.3622)">
    <path
       style="fill:#56a056;fill-opacity:1;fill-rule:evenodd;stroke:none;stroke-width:1px;stroke-linecap:butt;stroke-linejoin:miter;stroke-opacity:1"
       d="m 9.4184735,1030.649 c -0.8084415,-0.7866 -0.8390129,-1.2955 -0.908517,-2.0567 0.2038089,-1.1087 1.5079245,-1.9854 2.7229385,-1.9952 1.402363,0.034 2.467918,0.6455 2.70883,1.7153 0.10974,0.6759 -0.135873,1.3114 -0.63207,1.915 0.629456,0.059 1.775751,0.036 2.294679,0.04 0,0.2324 0.04442,0.2018 0,0.4482 -0.78388,-0.027 -2.596995,0.031 -3.625184,0 -0.15939,0 -0.101905,-0.2694 -0.03919,-0.4984 0.664207,-0.2088 0.861746,-1.0143 0.73345,-1.5646 -0.143712,-0.617 -0.673354,-1.2184 -1.339129,-1.2899 -1.090899,0 -1.8862774,0 -2.2439876,1.2838 -0.1802927,0.5889 0.2900361,1.351 0.6621172,1.8196 0.070549,0.089 -0.1907434,0.095 -0.3232195,0.1906 z"
       id="path4287"
       inkscape:connector-curvature="0"
       sodipodi:nodetypes="cccccccscsccsc" />
    <path
       style="fill:#56a056;fill-opacity:1;fill-rule:evenodd;stroke:none;stroke-width:1px;stroke-linecap:butt;stroke-linejoin:miter;stroke-opacity:1"
       d="m 21.511918,1046.535 1.085413,0 1.550515,-5.2506 1.085152,5.6544 3.643475,-0.068 0,-0.6057 -2.247907,-0.202 -2.403377,-7.3372 z"
       id="path4306"
       inkscape:connector-curvature="0" />
    <path
       style="fill:#56a056;fill-opacity:1;fill-rule:evenodd;stroke:none;stroke-width:0;stroke-linecap:butt;stroke-linejoin:miter;stroke-miterlimit:4;stroke-dasharray:none;stroke-opacity:1"
       d="m 8.7292594,1041.255 c -0.1376488,-0.1096 -0.2546503,-0.1877 -0.3959555,-0.3443 -0.3690709,-0.5691 -0.234218,-0.6963 -0.1785133,-0.9796 0.1892672,-0.4602 0.5394114,-0.6734 0.9792424,-0.8187 0.2948696,-0.064 0.6194197,-0.078 0.915365,-0.017 0.539626,0.096 0.910848,0.3491 1.128505,0.9299 0.04517,0.7768 -0.278309,0.9306 -0.483922,1.0697 -0.144101,0.054 -0.287772,0.1079 -0.431658,0.1601 -0.08173,-0.061 -0.3467028,-0.1218 -0.161307,-0.2161 0.133347,-0.077 0.187116,-0.2024 0.236584,-0.3201 0.04087,-0.096 0.06452,-0.2015 0.04947,-0.3022 -0.09463,-0.3802 -0.340251,-0.5668 -0.7190001,-0.717 -0.1871164,-0.045 -0.4432722,-0.056 -0.6301735,0.08 -0.1892672,0.096 -0.3955253,0.2546 -0.501773,0.5471 -2.151e-4,0.1514 0.043015,0.2908 0.1613072,0.4152 0.094634,0.099 0.1397996,0.1601 0.2699207,0.3073 -0.058071,0.063 -0.1763625,0.1357 -0.2372291,0.2057 z"
       id="path4334"
       inkscape:connector-curvature="0"
       sodipodi:nodetypes="cccccccccaccccsccc" />
    <path
       style="fill:#56a056;fill-opacity:1;fill-rule:evenodd;stroke:none;stroke-width:0;stroke-linecap:butt;stroke-linejoin:miter;stroke-miterlimit:4;stroke-dasharray:none;stroke-opacity:1"
       d="m 12.008585,1044.8842 c -0.137649,-0.1096 -0.254866,-0.1878 -0.395956,-0.3444 -0.369071,-0.569 -0.234218,-0.6962 -0.178513,-0.9795 0.189267,-0.4603 0.539196,-0.6735 0.979242,-0.8188 0.29487,-0.064 0.61942,-0.078 0.915365,-0.017 0.539626,0.096 0.910848,0.3491 1.128505,0.93 0.04517,0.7768 -0.278523,0.9306 -0.484136,1.0696 -0.144101,0.054 -0.287557,0.1062 -0.431443,0.1601 -0.08173,-0.061 -0.346703,-0.1218 -0.161308,-0.2161 0.133348,-0.077 0.187117,-0.2024 0.236584,-0.32 0.04086,-0.096 0.06452,-0.2015 0.04947,-0.3023 -0.09463,-0.3804 -0.34025,-0.5667 -0.719,-0.7169 -0.187116,-0.045 -0.443272,-0.054 -0.630388,0.08 -0.189267,0.096 -0.395311,0.2546 -0.501558,0.5471 -2.15e-4,0.1514 0.04302,0.2908 0.161307,0.4152 0.09463,0.099 0.1398,0.1601 0.269921,0.3073 -0.05807,0.063 -0.176363,0.1358 -0.237229,0.2057 z"
       id="path4334-7"
       inkscape:connector-curvature="0"
       sodipodi:nodetypes="cccccccccaccccsccc" />
  </g>
</svg>
