<?xml version="1.0" encoding="UTF-8" standalone="no"?>
<!-- Created with Inkscape (http://www.inkscape.org/) -->

<svg
   xmlns:dc="http://purl.org/dc/elements/1.1/"
   xmlns:cc="http://creativecommons.org/ns#"
   xmlns:rdf="http://www.w3.org/1999/02/22-rdf-syntax-ns#"
   xmlns:svg="http://www.w3.org/2000/svg"
   xmlns="http://www.w3.org/2000/svg"
   xmlns:sodipodi="http://sodipodi.sourceforge.net/DTD/sodipodi-0.dtd"
   xmlns:inkscape="http://www.inkscape.org/namespaces/inkscape"
   width="100%"
   height="100%"
   viewBox="0 0 32 32"
   version="1.1"
   id="svg2"
   inkscape:version="0.91 r"
   sodipodi:docname="wood_deciduous.svg"
   inkscape:export-filename="/home/gisbert/osm/contabo/openstreetmap-carto-de/symbols-de/wood_deciduous.png"
   inkscape:export-xdpi="90"
   inkscape:export-ydpi="90">
  <metadata
     id="metadata12">
    <rdf:RDF>
      <cc:Work
         rdf:about="">
        <dc:format>image/svg+xml</dc:format>
        <dc:type
           rdf:resource="http://purl.org/dc/dcmitype/StillImage" />
        <dc:title></dc:title>
      </cc:Work>
    </rdf:RDF>
  </metadata>
  <defs
     id="defs10" />
  <sodipodi:namedview
     pagecolor="#ffffff"
     bordercolor="#666666"
     borderopacity="1"
     objecttolerance="10"
     gridtolerance="10"
     guidetolerance="10"
     inkscape:pageopacity="0"
     inkscape:pageshadow="2"
     inkscape:window-width="1750"
     inkscape:window-height="917"
     id="namedview8"
     showgrid="false"
     inkscape:zoom="13.535211"
     inkscape:cx="5.359008"
     inkscape:cy="18.426356"
     inkscape:window-x="0"
     inkscape:window-y="0"
     inkscape:window-maximized="0"
     inkscape:current-layer="svg2" />
  <g
     id="g4143"
     transform="translate(1.4037461,-16.180021)">
    <path
       sodipodi:nodetypes="cccccccscsccsc"
       inkscape:connector-curvature="0"
       id="path4287"
       d="m 18.590307,27.436592 c -1.113512,-1.3035 -1.15562,-2.1468 -1.251352,-3.4082 0.280718,-1.8372 2.07695,-3.29 3.750457,-3.3063 1.931553,0.057 3.399203,1.0697 3.731024,2.8425 0.151152,1.12 -0.187145,2.1731 -0.870585,3.1733 0.866985,0.098 2.445842,0.059 3.16059,0.066 0,0.3852 0.06118,0.3345 0,0.7427 -1.079682,-0.044 -3.576987,0.051 -4.993171,0 -0.219537,0 -0.140359,-0.4464 -0.05398,-0.8258 0.914849,-0.346 1.186931,-1.6808 1.010221,-2.5927 -0.197942,-1.0224 -0.927448,-2.019 -1.844458,-2.1375 -1.502556,0 -2.598075,0 -3.09077,2.1273 -0.248327,0.9759 0.399483,2.2388 0.911971,3.0153 0.09717,0.1475 -0.262721,0.1575 -0.445188,0.3159 z"
       style="fill:#308030;fill-opacity:1;fill-rule:evenodd;stroke:none;stroke-width:1px;stroke-linecap:butt;stroke-linejoin:miter;stroke-opacity:1" />
    <path
       inkscape:connector-curvature="0"
       id="path4137"
       d="m 23.740043,26.950892 0.363506,-0.4282 0.363506,-0.798 0.323116,-1.0899 0.04039,-0.7784 -0.161558,-0.8758 -0.565454,-0.9148 -1.029934,-0.8758 -1.090519,-0.3503 -0.908765,-0.1168 -1.070324,0.1751 -0.96935,0.5061 -0.626038,0.5644 -0.100974,0.1363"
       style="fill:none;fill-rule:evenodd;stroke:#1d3816;stroke-width:0.18921183;stroke-linecap:butt;stroke-linejoin:miter;stroke-miterlimit:4;stroke-dasharray:none;stroke-opacity:1" />
    <path
       inkscape:connector-curvature="0"
       id="path4139"
       d="m 18.650956,22.785892 -0.323116,0.4672 -0.262533,0.8952 0,0.7784 0.201948,0.6229 0.323117,0.7784 0.484675,0.8369"
       style="fill:none;fill-rule:evenodd;stroke:#1d3816;stroke-width:0.18921183;stroke-linecap:butt;stroke-linejoin:miter;stroke-miterlimit:4;stroke-dasharray:none;stroke-opacity:1" />
  </g>
  <g
     id="g4138"
     transform="translate(-1.6253903,14.628512)">
    <path
       sodipodi:nodetypes="cccccccscsccsc"
       inkscape:connector-curvature="0"
       id="path4287-9"
       d="M 6.3259984,10.887164 C 5.2124864,9.5836638 5.1703794,8.7403638 5.0746474,7.4789638 c 0.280717,-1.8372 2.076949,-3.29 3.750457,-3.3063 1.9315516,0.057 3.3992016,1.0697 3.7310226,2.8425 0.151152,1.12 -0.187145,2.1731 -0.870585,3.1733002 0.866985,0.098 2.445842,0.059 3.16059,0.066 0,0.3852 0.06118,0.3345 0,0.7427 -1.079682,-0.044 -3.576987,0.051 -4.9931696,0 -0.219537,0 -0.140359,-0.4464 -0.05398,-0.8258 0.9148476,-0.3460002 1.1869296,-1.6808002 1.0102196,-2.5927002 -0.197942,-1.0224 -0.9274466,-2.019 -1.8444566,-2.1375 -1.502557,0 -2.598076,0 -3.09077,2.1273 -0.248328,0.9759 0.399483,2.2388 0.911971,3.0153002 0.09717,0.1475 -0.262722,0.1575 -0.445188,0.3159 z"
       style="fill:#308030;fill-opacity:1;fill-rule:evenodd;stroke:none;stroke-width:1px;stroke-linecap:butt;stroke-linejoin:miter;stroke-opacity:1" />
    <path
       inkscape:connector-curvature="0"
       id="path4137-6"
       d="m 11.475734,10.401464 0.363506,-0.4282002 0.363506,-0.798 0.323116,-1.0899 0.04039,-0.7784 -0.161558,-0.8758 -0.565454,-0.9148 -1.029934,-0.8758 -1.0905176,-0.3503 -0.908765,-0.1168 -1.070324,0.1751 -0.96935,0.5061 -0.626039,0.5644 -0.100974,0.1363"
       style="fill:none;fill-rule:evenodd;stroke:#1d3816;stroke-width:0.18921183;stroke-linecap:butt;stroke-linejoin:miter;stroke-miterlimit:4;stroke-dasharray:none;stroke-opacity:1" />
    <path
       inkscape:connector-curvature="0"
       id="path4139-1"
       d="m 6.3866484,6.2364638 -0.323117,0.4672 -0.262532,0.8952 0,0.7784 0.201948,0.6229 0.323116,0.7784 0.484675,0.8369002"
       style="fill:none;fill-rule:evenodd;stroke:#1d3816;stroke-width:0.18921183;stroke-linecap:butt;stroke-linejoin:miter;stroke-miterlimit:4;stroke-dasharray:none;stroke-opacity:1" />
  </g>
</svg>
